# xmcd
# Track frame offsets:
# 150
# 15610
# 38455
# 65913
# 92610
# 107481
# 136909
# 158329
# 178243
# 203428
#
# Disc length: 2982 seconds
# Revision: 0
# Processed by: cddbd v1.5.1PL0 Copyright (c) Steve Scherf et al.
# Submitted via: VisiTrax 2.9.10.228 - For more info visit www.synapsa.com
#
DISCID=730ba40a
DTITLE=VuduBlu - I Blame It On The Blues
DYEAR=2002
DGENRE=Blues
TTITLE0=Hey Ho
TTITLE1=Never Say Never
TTITLE2=I Blame It On the Blues
TTITLE3=Give Up
TTITLE4=Just One Crutch
TTITLE5=Never Been To Spain
TTITLE6=I Know You're Seeing Another Man
TTITLE7=New York Hustler
TTITLE8=I Can Feel A Stranger Coming
TTITLE9=In My Heart
EXTD=
EXTT0=
EXTT1=
EXTT2=
EXTT3=
EXTT4=
EXTT5=
EXTT6=
EXTT7=
EXTT8=
EXTT9=
PLAYORDER=
